<svg width="512" height="512" viewBox="0 0 512 512" fill="none" xmlns="http://www.w3.org/2000/svg">
  <!-- Gradient Background Circle -->
  <defs>
    <linearGradient id="gradient1" x1="0%" y1="0%" x2="100%" y2="100%">
      <stop offset="0%" style="stop-color:#6C63FF;stop-opacity:1" />
      <stop offset="100%" style="stop-color:#FFC98A;stop-opacity:1" />
    </linearGradient>
    <linearGradient id="gradient2" x1="0%" y1="0%" x2="100%" y2="100%">
      <stop offset="0%" style="stop-color:#FFD700;stop-opacity:1" />
      <stop offset="100%" style="stop-color:#FFA500;stop-opacity:1" />
    </linearGradient>
  </defs>

  <!-- Background Circle -->
  <circle cx="256" cy="256" r="240" fill="url(#gradient1)"/>

  <!-- Heart Symbol (Connection) -->
  <path d="M256 420C256 420 140 340 140 240C140 200 160 160 200 160C230 160 250 180 256 200C262 180 282 160 312 160C352 160 372 200 372 240C372 340 256 420 256 420Z"
        fill="#FFFFFF" opacity="0.95"/>

  <!-- Clock Hand (5 Minutes) -->
  <circle cx="256" cy="180" r="60" fill="url(#gradient2)" opacity="0.9"/>
  <rect x="251" y="150" width="10" height="35" rx="5" fill="#FFFFFF"/>
  <rect x="251" y="175" width="30" height="10" rx="5" fill="#FFFFFF"/>

  <!-- Small Hearts (Family) -->
  <path d="M180 300L180 280C180 270 190 265 195 270L200 275L205 270C210 265 220 270 220 280L220 300Z"
        fill="#FFFFFF" opacity="0.7"/>
  <path d="M290 320L290 300C290 290 300 285 305 290L310 295L315 290C320 285 330 290 330 300L330 320Z"
        fill="#FFFFFF" opacity="0.7"/>
</svg>
